<svg width="187" height="103" viewBox="0 0 187 103" fill="none" xmlns="http://www.w3.org/2000/svg">
<path d="M4.37337 90.991H5.63437V100H4.37337V90.991ZM7.78658 93.435C8.06392 93.3657 8.43225 93.292 8.89158 93.214C9.35092 93.136 9.87958 93.097 10.4776 93.097C11.0149 93.097 11.4612 93.175 11.8166 93.331C12.1719 93.4783 12.4536 93.6907 12.6616 93.968C12.8782 94.2367 13.0299 94.5617 13.1166 94.943C13.2032 95.3243 13.2466 95.7447 13.2466 96.204V100H12.0376V96.464C12.0376 96.048 12.0072 95.6927 11.9466 95.398C11.8946 95.1033 11.8036 94.865 11.6736 94.683C11.5436 94.501 11.3702 94.371 11.1536 94.293C10.9369 94.2063 10.6682 94.163 10.3476 94.163C10.2176 94.163 10.0832 94.1673 9.94458 94.176C9.80592 94.1847 9.67158 94.1977 9.54158 94.215C9.42025 94.2237 9.30758 94.2367 9.20358 94.254C9.10825 94.2713 9.03892 94.2843 8.99558 94.293V100H7.78658V93.435ZM24.0062 90.991H25.2672V100H24.0062V95.84H19.5992V100H18.3382V90.991H19.5992V94.748H24.0062V90.991ZM33.3932 96.62C33.3932 97.1573 33.3152 97.6427 33.1592 98.076C33.0032 98.5093 32.7822 98.882 32.4962 99.194C32.2189 99.506 31.8852 99.7487 31.4952 99.922C31.1052 100.087 30.6806 100.169 30.2212 100.169C29.7619 100.169 29.3372 100.087 28.9472 99.922C28.5572 99.7487 28.2192 99.506 27.9332 99.194C27.6559 98.882 27.4392 98.5093 27.2832 98.076C27.1272 97.6427 27.0492 97.1573 27.0492 96.62C27.0492 96.0913 27.1272 95.6103 27.2832 95.177C27.4392 94.735 27.6559 94.358 27.9332 94.046C28.2192 93.734 28.5572 93.4957 28.9472 93.331C29.3372 93.1577 29.7619 93.071 30.2212 93.071C30.6806 93.071 31.1052 93.1577 31.4952 93.331C31.8852 93.4957 32.2189 93.734 32.4962 94.046C32.7822 94.358 33.0032 94.735 33.1592 95.177C33.3152 95.6103 33.3932 96.0913 33.3932 96.62ZM32.1322 96.62C32.1322 95.8573 31.9589 95.255 31.6122 94.813C31.2742 94.3623 30.8106 94.137 30.2212 94.137C29.6319 94.137 29.1639 94.3623 28.8172 94.813C28.4792 95.255 28.3102 95.8573 28.3102 96.62C28.3102 97.3827 28.4792 97.9893 28.8172 98.44C29.1639 98.882 29.6319 99.103 30.2212 99.103C30.8106 99.103 31.2742 98.882 31.6122 98.44C31.9589 97.9893 32.1322 97.3827 32.1322 96.62ZM35.0942 93.435C35.3715 93.3657 35.7355 93.292 36.1862 93.214C36.6455 93.136 37.1742 93.097 37.7722 93.097C38.2055 93.097 38.5695 93.1577 38.8642 93.279C39.1589 93.3917 39.4059 93.5607 39.6052 93.786C39.6659 93.7427 39.7612 93.682 39.8912 93.604C40.0212 93.526 40.1815 93.4523 40.3722 93.383C40.5629 93.305 40.7752 93.24 41.0092 93.188C41.2432 93.1273 41.4945 93.097 41.7632 93.097C42.2832 93.097 42.7079 93.175 43.0372 93.331C43.3665 93.4783 43.6222 93.6907 43.8042 93.968C43.9949 94.2453 44.1205 94.5747 44.1812 94.956C44.2505 95.3373 44.2852 95.7533 44.2852 96.204V100H43.0762V96.464C43.0762 96.0653 43.0545 95.723 43.0112 95.437C42.9765 95.151 42.9029 94.9127 42.7902 94.722C42.6862 94.5313 42.5389 94.3927 42.3482 94.306C42.1662 94.2107 41.9279 94.163 41.6332 94.163C41.2259 94.163 40.8879 94.2193 40.6192 94.332C40.3592 94.436 40.1815 94.5313 40.0862 94.618C40.1555 94.8433 40.2075 95.0903 40.2422 95.359C40.2769 95.6277 40.2942 95.9093 40.2942 96.204V100H39.0852V96.464C39.0852 96.0653 39.0635 95.723 39.0202 95.437C38.9769 95.151 38.8989 94.9127 38.7862 94.722C38.6822 94.5313 38.5349 94.3927 38.3442 94.306C38.1622 94.2107 37.9282 94.163 37.6422 94.163C37.5209 94.163 37.3909 94.1673 37.2522 94.176C37.1135 94.1847 36.9792 94.1977 36.8492 94.215C36.7279 94.2237 36.6152 94.2367 36.5112 94.254C36.4072 94.2713 36.3379 94.2843 36.3032 94.293V100H35.0942V93.435ZM45.9145 96.633C45.9145 96.035 46.0011 95.515 46.1745 95.073C46.3478 94.6223 46.5775 94.2497 46.8635 93.955C47.1495 93.6603 47.4788 93.4393 47.8515 93.292C48.2241 93.1447 48.6055 93.071 48.9955 93.071C49.9055 93.071 50.6031 93.357 51.0885 93.929C51.5738 94.4923 51.8165 95.3547 51.8165 96.516C51.8165 96.568 51.8165 96.6373 51.8165 96.724C51.8165 96.802 51.8121 96.8757 51.8035 96.945H47.1755C47.2275 97.647 47.4311 98.18 47.7865 98.544C48.1418 98.908 48.6965 99.09 49.4505 99.09C49.8751 99.09 50.2305 99.0553 50.5165 98.986C50.8111 98.908 51.0321 98.8343 51.1795 98.765L51.3485 99.779C51.2011 99.857 50.9411 99.9393 50.5685 100.026C50.2045 100.113 49.7885 100.156 49.3205 100.156C48.7311 100.156 48.2198 100.069 47.7865 99.896C47.3618 99.714 47.0108 99.467 46.7335 99.155C46.4561 98.843 46.2481 98.4747 46.1095 98.05C45.9795 97.6167 45.9145 97.1443 45.9145 96.633ZM50.5555 95.97C50.5641 95.424 50.4255 94.9777 50.1395 94.631C49.8621 94.2757 49.4765 94.098 48.9825 94.098C48.7051 94.098 48.4581 94.1543 48.2415 94.267C48.0335 94.371 47.8558 94.5097 47.7085 94.683C47.5611 94.8563 47.4441 95.0557 47.3575 95.281C47.2795 95.5063 47.2275 95.736 47.2015 95.97H50.5555ZM59.032 90.9C60.2973 90.9 61.268 91.1427 61.944 91.628C62.6286 92.1047 62.971 92.8197 62.971 93.773C62.971 94.293 62.8756 94.7393 62.685 95.112C62.503 95.476 62.2343 95.775 61.879 96.009C61.5323 96.2343 61.1076 96.399 60.605 96.503C60.1023 96.607 59.5346 96.659 58.902 96.659H57.901V100H56.64V91.121C56.9953 91.0343 57.3896 90.978 57.823 90.952C58.265 90.9173 58.668 90.9 59.032 90.9ZM59.136 92.005C58.5986 92.005 58.187 92.018 57.901 92.044V95.58H58.85C59.2833 95.58 59.6733 95.554 60.02 95.502C60.3666 95.4413 60.657 95.346 60.891 95.216C61.1336 95.0773 61.32 94.891 61.45 94.657C61.58 94.423 61.645 94.124 61.645 93.76C61.645 93.4133 61.5756 93.1273 61.437 92.902C61.307 92.6767 61.125 92.499 60.891 92.369C60.6656 92.2303 60.4013 92.135 60.098 92.083C59.7946 92.031 59.474 92.005 59.136 92.005ZM66.9672 93.097C67.0712 93.097 67.1882 93.1057 67.3182 93.123C67.4568 93.1317 67.5912 93.149 67.7212 93.175C67.8512 93.1923 67.9682 93.214 68.0722 93.24C68.1848 93.2573 68.2672 93.2747 68.3192 93.292L68.1112 94.345C68.0158 94.3103 67.8555 94.2713 67.6302 94.228C67.4135 94.176 67.1318 94.15 66.7852 94.15C66.5598 94.15 66.3345 94.176 66.1092 94.228C65.8925 94.2713 65.7495 94.3017 65.6802 94.319V100H64.4712V93.526C64.7572 93.422 65.1125 93.3267 65.5372 93.24C65.9618 93.1447 66.4385 93.097 66.9672 93.097ZM70.6948 100H69.4858V93.24H70.6948V100ZM70.0838 92.018C69.8671 92.018 69.6808 91.9487 69.5248 91.81C69.3775 91.6627 69.3038 91.4677 69.3038 91.225C69.3038 90.9823 69.3775 90.7917 69.5248 90.653C69.6808 90.5057 69.8671 90.432 70.0838 90.432C70.3005 90.432 70.4825 90.5057 70.6298 90.653C70.7858 90.7917 70.8638 90.9823 70.8638 91.225C70.8638 91.4677 70.7858 91.6627 70.6298 91.81C70.4825 91.9487 70.3005 92.018 70.0838 92.018ZM78.0519 93.24C77.7139 94.5053 77.3152 95.7187 76.8559 96.88C76.4052 98.0413 75.9676 99.0813 75.5429 100H74.4509C74.0262 99.0813 73.5842 98.0413 73.1249 96.88C72.6742 95.7187 72.2799 94.5053 71.9419 93.24H73.2419C73.3459 93.6647 73.4672 94.1197 73.6059 94.605C73.7532 95.0817 73.9049 95.5583 74.0609 96.035C74.2256 96.503 74.3902 96.958 74.5549 97.4C74.7196 97.842 74.8756 98.2363 75.0229 98.583C75.1702 98.2363 75.3262 97.842 75.4909 97.4C75.6556 96.958 75.8159 96.503 75.9719 96.035C76.1366 95.5583 76.2882 95.0817 76.4269 94.605C76.5742 94.1197 76.6999 93.6647 76.8039 93.24H78.0519ZM81.5873 99.129C81.8733 99.129 82.1246 99.1247 82.3413 99.116C82.5666 99.0987 82.7529 99.0727 82.9003 99.038V97.023C82.8136 96.9797 82.6706 96.945 82.4713 96.919C82.2806 96.8843 82.0466 96.867 81.7693 96.867C81.5873 96.867 81.3923 96.88 81.1843 96.906C80.9849 96.932 80.7986 96.9883 80.6253 97.075C80.4606 97.153 80.3219 97.2657 80.2093 97.413C80.0966 97.5517 80.0403 97.738 80.0403 97.972C80.0403 98.4053 80.1789 98.7087 80.4563 98.882C80.7336 99.0467 81.1106 99.129 81.5873 99.129ZM81.4833 93.071C81.9686 93.071 82.3759 93.136 82.7053 93.266C83.0433 93.3873 83.3119 93.565 83.5113 93.799C83.7193 94.0243 83.8666 94.2973 83.9533 94.618C84.0399 94.93 84.0833 95.2767 84.0833 95.658V99.883C83.9793 99.9003 83.8319 99.9263 83.6413 99.961C83.4593 99.987 83.2513 100.013 83.0173 100.039C82.7833 100.065 82.5276 100.087 82.2503 100.104C81.9816 100.13 81.7129 100.143 81.4443 100.143C81.0629 100.143 80.7119 100.104 80.3913 100.026C80.0706 99.948 79.7933 99.8267 79.5593 99.662C79.3253 99.4887 79.1433 99.2633 79.0133 98.986C78.8833 98.7087 78.8183 98.375 78.8183 97.985C78.8183 97.6123 78.8919 97.2917 79.0393 97.023C79.1953 96.7543 79.4033 96.5377 79.6633 96.373C79.9233 96.2083 80.2266 96.087 80.5733 96.009C80.9199 95.931 81.2839 95.892 81.6653 95.892C81.7866 95.892 81.9123 95.9007 82.0423 95.918C82.1723 95.9267 82.2936 95.944 82.4063 95.97C82.5276 95.9873 82.6316 96.0047 82.7183 96.022C82.8049 96.0393 82.8656 96.0523 82.9003 96.061V95.723C82.9003 95.5237 82.8786 95.3287 82.8353 95.138C82.7919 94.9387 82.7139 94.7653 82.6013 94.618C82.4886 94.462 82.3326 94.3407 82.1333 94.254C81.9426 94.1587 81.6913 94.111 81.3793 94.111C80.9806 94.111 80.6296 94.1413 80.3263 94.202C80.0316 94.254 79.8106 94.3103 79.6633 94.371L79.5203 93.37C79.6763 93.3007 79.9363 93.2357 80.3003 93.175C80.6643 93.1057 81.0586 93.071 81.4833 93.071ZM87.2223 93.24H89.7833V94.254H87.2223V97.374C87.2223 97.712 87.2483 97.9937 87.3003 98.219C87.3523 98.4357 87.4303 98.609 87.5343 98.739C87.6383 98.8603 87.7683 98.947 87.9243 98.999C88.0803 99.051 88.2623 99.077 88.4703 99.077C88.8343 99.077 89.1246 99.038 89.3413 98.96C89.5666 98.8733 89.7226 98.8127 89.8093 98.778L90.0433 99.779C89.9219 99.8397 89.7096 99.9133 89.4063 100C89.1029 100.095 88.7563 100.143 88.3663 100.143C87.9069 100.143 87.5256 100.087 87.2223 99.974C86.9276 99.8527 86.6893 99.675 86.5073 99.441C86.3253 99.207 86.1953 98.921 86.1173 98.583C86.0479 98.2363 86.0133 97.8377 86.0133 97.387V91.355L87.2223 91.147V93.24ZM90.8178 96.633C90.8178 96.035 90.9045 95.515 91.0778 95.073C91.2511 94.6223 91.4808 94.2497 91.7668 93.955C92.0528 93.6603 92.3821 93.4393 92.7548 93.292C93.1275 93.1447 93.5088 93.071 93.8988 93.071C94.8088 93.071 95.5065 93.357 95.9918 93.929C96.4771 94.4923 96.7198 95.3547 96.7198 96.516C96.7198 96.568 96.7198 96.6373 96.7198 96.724C96.7198 96.802 96.7155 96.8757 96.7068 96.945H92.0788C92.1308 97.647 92.3345 98.18 92.6898 98.544C93.0451 98.908 93.5998 99.09 94.3538 99.09C94.7785 99.09 95.1338 99.0553 95.4198 98.986C95.7145 98.908 95.9355 98.8343 96.0828 98.765L96.2518 99.779C96.1045 99.857 95.8445 99.9393 95.4718 100.026C95.1078 100.113 94.6918 100.156 94.2238 100.156C93.6345 100.156 93.1231 100.069 92.6898 99.896C92.2651 99.714 91.9141 99.467 91.6368 99.155C91.3595 98.843 91.1515 98.4747 91.0128 98.05C90.8828 97.6167 90.8178 97.1443 90.8178 96.633ZM95.4588 95.97C95.4675 95.424 95.3288 94.9777 95.0428 94.631C94.7655 94.2757 94.3798 94.098 93.8858 94.098C93.6085 94.098 93.3615 94.1543 93.1448 94.267C92.9368 94.371 92.7591 94.5097 92.6118 94.683C92.4645 94.8563 92.3475 95.0557 92.2608 95.281C92.1828 95.5063 92.1308 95.736 92.1048 95.97H95.4588ZM105.586 98.752C105.5 98.544 105.383 98.2797 105.235 97.959C105.097 97.6383 104.945 97.2917 104.78 96.919C104.616 96.5463 104.438 96.165 104.247 95.775C104.065 95.3763 103.892 95.0037 103.727 94.657C103.563 94.3017 103.407 93.9853 103.259 93.708C103.121 93.4307 103.008 93.2183 102.921 93.071C102.826 94.0937 102.748 95.203 102.687 96.399C102.627 97.5863 102.575 98.7867 102.531 100H101.296C101.331 99.22 101.37 98.4357 101.413 97.647C101.457 96.8497 101.504 96.0697 101.556 95.307C101.617 94.5357 101.678 93.786 101.738 93.058C101.808 92.33 101.881 91.641 101.959 90.991H103.064C103.298 91.3723 103.55 91.823 103.818 92.343C104.087 92.863 104.356 93.409 104.624 93.981C104.893 94.5443 105.153 95.112 105.404 95.684C105.656 96.2473 105.885 96.763 106.093 97.231C106.301 96.763 106.531 96.2473 106.782 95.684C107.034 95.112 107.294 94.5443 107.562 93.981C107.831 93.409 108.1 92.863 108.368 92.343C108.637 91.823 108.888 91.3723 109.122 90.991H110.227C110.522 93.8943 110.743 96.8973 110.89 100H109.655C109.612 98.7867 109.56 97.5863 109.499 96.399C109.439 95.203 109.361 94.0937 109.265 93.071C109.179 93.2183 109.062 93.4307 108.914 93.708C108.776 93.9853 108.624 94.3017 108.459 94.657C108.295 95.0037 108.117 95.3763 107.926 95.775C107.744 96.165 107.571 96.5463 107.406 96.919C107.242 97.2917 107.086 97.6383 106.938 97.959C106.8 98.2797 106.687 98.544 106.6 98.752H105.586ZM118.172 99.805C117.894 99.8743 117.526 99.948 117.067 100.026C116.616 100.104 116.092 100.143 115.494 100.143C114.974 100.143 114.536 100.069 114.181 99.922C113.825 99.766 113.539 99.5493 113.323 99.272C113.106 98.9947 112.95 98.6697 112.855 98.297C112.759 97.9157 112.712 97.4953 112.712 97.036V93.24H113.921V96.776C113.921 97.5993 114.051 98.1887 114.311 98.544C114.571 98.8993 115.008 99.077 115.624 99.077C115.754 99.077 115.888 99.0727 116.027 99.064C116.165 99.0553 116.295 99.0467 116.417 99.038C116.538 99.0207 116.646 99.0077 116.742 98.999C116.846 98.9817 116.919 98.9643 116.963 98.947V93.24H118.172V99.805ZM121.827 99.129C122.321 99.129 122.685 99.064 122.919 98.934C123.162 98.804 123.283 98.596 123.283 98.31C123.283 98.0153 123.166 97.7813 122.932 97.608C122.698 97.4347 122.313 97.2397 121.775 97.023C121.515 96.919 121.264 96.815 121.021 96.711C120.787 96.5983 120.584 96.4683 120.41 96.321C120.237 96.1737 120.098 95.996 119.994 95.788C119.89 95.58 119.838 95.3243 119.838 95.021C119.838 94.423 120.059 93.9507 120.501 93.604C120.943 93.2487 121.546 93.071 122.308 93.071C122.499 93.071 122.69 93.084 122.88 93.11C123.071 93.1273 123.249 93.1533 123.413 93.188C123.578 93.214 123.721 93.2443 123.842 93.279C123.972 93.3137 124.072 93.344 124.141 93.37L123.92 94.41C123.79 94.3407 123.587 94.2713 123.309 94.202C123.032 94.124 122.698 94.085 122.308 94.085C121.97 94.085 121.676 94.1543 121.424 94.293C121.173 94.423 121.047 94.631 121.047 94.917C121.047 95.0643 121.073 95.1943 121.125 95.307C121.186 95.4197 121.273 95.5237 121.385 95.619C121.507 95.7057 121.654 95.788 121.827 95.866C122.001 95.944 122.209 96.0263 122.451 96.113C122.772 96.2343 123.058 96.3557 123.309 96.477C123.561 96.5897 123.773 96.724 123.946 96.88C124.128 97.036 124.267 97.2267 124.362 97.452C124.458 97.6687 124.505 97.9373 124.505 98.258C124.505 98.882 124.271 99.3543 123.803 99.675C123.344 99.9957 122.685 100.156 121.827 100.156C121.229 100.156 120.761 100.104 120.423 100C120.085 99.9047 119.856 99.831 119.734 99.779L119.955 98.739C120.094 98.791 120.315 98.869 120.618 98.973C120.922 99.077 121.325 99.129 121.827 99.129ZM127.265 100H126.056V93.24H127.265V100ZM126.654 92.018C126.437 92.018 126.251 91.9487 126.095 91.81C125.948 91.6627 125.874 91.4677 125.874 91.225C125.874 90.9823 125.948 90.7917 126.095 90.653C126.251 90.5057 126.437 90.432 126.654 90.432C126.871 90.432 127.053 90.5057 127.2 90.653C127.356 90.7917 127.434 90.9823 127.434 91.225C127.434 91.4677 127.356 91.6627 127.2 91.81C127.053 91.9487 126.871 92.018 126.654 92.018ZM132.282 100.156C131.736 100.156 131.255 100.069 130.839 99.896C130.432 99.7227 130.085 99.48 129.799 99.168C129.522 98.856 129.314 98.4877 129.175 98.063C129.037 97.6297 128.967 97.153 128.967 96.633C128.967 96.113 129.041 95.6363 129.188 95.203C129.344 94.7697 129.561 94.397 129.838 94.085C130.116 93.7643 130.454 93.5173 130.852 93.344C131.26 93.162 131.71 93.071 132.204 93.071C132.508 93.071 132.811 93.097 133.114 93.149C133.418 93.201 133.708 93.2833 133.985 93.396L133.712 94.423C133.53 94.3363 133.318 94.267 133.075 94.215C132.841 94.163 132.59 94.137 132.321 94.137C131.645 94.137 131.125 94.3493 130.761 94.774C130.406 95.1987 130.228 95.8183 130.228 96.633C130.228 96.997 130.267 97.3307 130.345 97.634C130.432 97.9373 130.562 98.1973 130.735 98.414C130.917 98.6307 131.147 98.7997 131.424 98.921C131.702 99.0337 132.04 99.09 132.438 99.09C132.759 99.09 133.049 99.0597 133.309 98.999C133.569 98.9383 133.773 98.8733 133.92 98.804L134.089 99.818C134.02 99.8613 133.92 99.9047 133.79 99.948C133.66 99.9827 133.513 100.013 133.348 100.039C133.184 100.074 133.006 100.1 132.815 100.117C132.633 100.143 132.456 100.156 132.282 100.156ZM143.895 98.908V100H138.474V90.991H139.735V98.908H143.895ZM144.608 96.633C144.608 96.035 144.694 95.515 144.868 95.073C145.041 94.6223 145.271 94.2497 145.557 93.955C145.843 93.6603 146.172 93.4393 146.545 93.292C146.917 93.1447 147.299 93.071 147.689 93.071C148.599 93.071 149.296 93.357 149.782 93.929C150.267 94.4923 150.51 95.3547 150.51 96.516C150.51 96.568 150.51 96.6373 150.51 96.724C150.51 96.802 150.505 96.8757 150.497 96.945H145.869C145.921 97.647 146.124 98.18 146.48 98.544C146.835 98.908 147.39 99.09 148.144 99.09C148.568 99.09 148.924 99.0553 149.21 98.986C149.504 98.908 149.725 98.8343 149.873 98.765L150.042 99.779C149.894 99.857 149.634 99.9393 149.262 100.026C148.898 100.113 148.482 100.156 148.014 100.156C147.424 100.156 146.913 100.069 146.48 99.896C146.055 99.714 145.704 99.467 145.427 99.155C145.149 98.843 144.941 98.4747 144.803 98.05C144.673 97.6167 144.608 97.1443 144.608 96.633ZM149.249 95.97C149.257 95.424 149.119 94.9777 148.833 94.631C148.555 94.2757 148.17 94.098 147.676 94.098C147.398 94.098 147.151 94.1543 146.935 94.267C146.727 94.371 146.549 94.5097 146.402 94.683C146.254 94.8563 146.137 95.0557 146.051 95.281C145.973 95.5063 145.921 95.736 145.895 95.97H149.249ZM153.82 99.129C154.314 99.129 154.678 99.064 154.912 98.934C155.154 98.804 155.276 98.596 155.276 98.31C155.276 98.0153 155.159 97.7813 154.925 97.608C154.691 97.4347 154.305 97.2397 153.768 97.023C153.508 96.919 153.256 96.815 153.014 96.711C152.78 96.5983 152.576 96.4683 152.403 96.321C152.229 96.1737 152.091 95.996 151.987 95.788C151.883 95.58 151.831 95.3243 151.831 95.021C151.831 94.423 152.052 93.9507 152.494 93.604C152.936 93.2487 153.538 93.071 154.301 93.071C154.491 93.071 154.682 93.084 154.873 93.11C155.063 93.1273 155.241 93.1533 155.406 93.188C155.57 93.214 155.713 93.2443 155.835 93.279C155.965 93.3137 156.064 93.344 156.134 93.37L155.913 94.41C155.783 94.3407 155.579 94.2713 155.302 94.202C155.024 94.124 154.691 94.085 154.301 94.085C153.963 94.085 153.668 94.1543 153.417 94.293C153.165 94.423 153.04 94.631 153.04 94.917C153.04 95.0643 153.066 95.1943 153.118 95.307C153.178 95.4197 153.265 95.5237 153.378 95.619C153.499 95.7057 153.646 95.788 153.82 95.866C153.993 95.944 154.201 96.0263 154.444 96.113C154.764 96.2343 155.05 96.3557 155.302 96.477C155.553 96.5897 155.765 96.724 155.939 96.88C156.121 97.036 156.259 97.2267 156.355 97.452C156.45 97.6687 156.498 97.9373 156.498 98.258C156.498 98.882 156.264 99.3543 155.796 99.675C155.336 99.9957 154.678 100.156 153.82 100.156C153.222 100.156 152.754 100.104 152.416 100C152.078 99.9047 151.848 99.831 151.727 99.779L151.948 98.739C152.086 98.791 152.307 98.869 152.611 98.973C152.914 99.077 153.317 99.129 153.82 99.129ZM159.621 99.129C160.115 99.129 160.479 99.064 160.713 98.934C160.956 98.804 161.077 98.596 161.077 98.31C161.077 98.0153 160.96 97.7813 160.726 97.608C160.492 97.4347 160.107 97.2397 159.569 97.023C159.309 96.919 159.058 96.815 158.815 96.711C158.581 96.5983 158.378 96.4683 158.204 96.321C158.031 96.1737 157.892 95.996 157.788 95.788C157.684 95.58 157.632 95.3243 157.632 95.021C157.632 94.423 157.853 93.9507 158.295 93.604C158.737 93.2487 159.34 93.071 160.102 93.071C160.293 93.071 160.484 93.084 160.674 93.11C160.865 93.1273 161.043 93.1533 161.207 93.188C161.372 93.214 161.515 93.2443 161.636 93.279C161.766 93.3137 161.866 93.344 161.935 93.37L161.714 94.41C161.584 94.3407 161.381 94.2713 161.103 94.202C160.826 94.124 160.492 94.085 160.102 94.085C159.764 94.085 159.47 94.1543 159.218 94.293C158.967 94.423 158.841 94.631 158.841 94.917C158.841 95.0643 158.867 95.1943 158.919 95.307C158.98 95.4197 159.067 95.5237 159.179 95.619C159.301 95.7057 159.448 95.788 159.621 95.866C159.795 95.944 160.003 96.0263 160.245 96.113C160.566 96.2343 160.852 96.3557 161.103 96.477C161.355 96.5897 161.567 96.724 161.74 96.88C161.922 97.036 162.061 97.2267 162.156 97.452C162.252 97.6687 162.299 97.9373 162.299 98.258C162.299 98.882 162.065 99.3543 161.597 99.675C161.138 99.9957 160.479 100.156 159.621 100.156C159.023 100.156 158.555 100.104 158.217 100C157.879 99.9047 157.65 99.831 157.528 99.779L157.749 98.739C157.888 98.791 158.109 98.869 158.412 98.973C158.716 99.077 159.119 99.129 159.621 99.129ZM169.817 96.62C169.817 97.1573 169.739 97.6427 169.583 98.076C169.427 98.5093 169.206 98.882 168.92 99.194C168.643 99.506 168.309 99.7487 167.919 99.922C167.529 100.087 167.104 100.169 166.645 100.169C166.186 100.169 165.761 100.087 165.371 99.922C164.981 99.7487 164.643 99.506 164.357 99.194C164.08 98.882 163.863 98.5093 163.707 98.076C163.551 97.6427 163.473 97.1573 163.473 96.62C163.473 96.0913 163.551 95.6103 163.707 95.177C163.863 94.735 164.08 94.358 164.357 94.046C164.643 93.734 164.981 93.4957 165.371 93.331C165.761 93.1577 166.186 93.071 166.645 93.071C167.104 93.071 167.529 93.1577 167.919 93.331C168.309 93.4957 168.643 93.734 168.92 94.046C169.206 94.358 169.427 94.735 169.583 95.177C169.739 95.6103 169.817 96.0913 169.817 96.62ZM168.556 96.62C168.556 95.8573 168.383 95.255 168.036 94.813C167.698 94.3623 167.234 94.137 166.645 94.137C166.056 94.137 165.588 94.3623 165.241 94.813C164.903 95.255 164.734 95.8573 164.734 96.62C164.734 97.3827 164.903 97.9893 165.241 98.44C165.588 98.882 166.056 99.103 166.645 99.103C167.234 99.103 167.698 98.882 168.036 98.44C168.383 97.9893 168.556 97.3827 168.556 96.62ZM171.518 93.435C171.795 93.3657 172.164 93.292 172.623 93.214C173.082 93.136 173.611 93.097 174.209 93.097C174.746 93.097 175.193 93.175 175.548 93.331C175.903 93.4783 176.185 93.6907 176.393 93.968C176.61 94.2367 176.761 94.5617 176.848 94.943C176.935 95.3243 176.978 95.7447 176.978 96.204V100H175.769V96.464C175.769 96.048 175.739 95.6927 175.678 95.398C175.626 95.1033 175.535 94.865 175.405 94.683C175.275 94.501 175.102 94.371 174.885 94.293C174.668 94.2063 174.4 94.163 174.079 94.163C173.949 94.163 173.815 94.1673 173.676 94.176C173.537 94.1847 173.403 94.1977 173.273 94.215C173.152 94.2237 173.039 94.2367 172.935 94.254C172.84 94.2713 172.77 94.2843 172.727 94.293V100H171.518V93.435ZM180.556 99.129C181.05 99.129 181.414 99.064 181.648 98.934C181.891 98.804 182.012 98.596 182.012 98.31C182.012 98.0153 181.895 97.7813 181.661 97.608C181.427 97.4347 181.041 97.2397 180.504 97.023C180.244 96.919 179.993 96.815 179.75 96.711C179.516 96.5983 179.312 96.4683 179.139 96.321C178.966 96.1737 178.827 95.996 178.723 95.788C178.619 95.58 178.567 95.3243 178.567 95.021C178.567 94.423 178.788 93.9507 179.23 93.604C179.672 93.2487 180.274 93.071 181.037 93.071C181.228 93.071 181.418 93.084 181.609 93.11C181.8 93.1273 181.977 93.1533 182.142 93.188C182.307 93.214 182.45 93.2443 182.571 93.279C182.701 93.3137 182.801 93.344 182.87 93.37L182.649 94.41C182.519 94.3407 182.315 94.2713 182.038 94.202C181.761 94.124 181.427 94.085 181.037 94.085C180.699 94.085 180.404 94.1543 180.153 94.293C179.902 94.423 179.776 94.631 179.776 94.917C179.776 95.0643 179.802 95.1943 179.854 95.307C179.915 95.4197 180.001 95.5237 180.114 95.619C180.235 95.7057 180.383 95.788 180.556 95.866C180.729 95.944 180.937 96.0263 181.18 96.113C181.501 96.2343 181.787 96.3557 182.038 96.477C182.289 96.5897 182.502 96.724 182.675 96.88C182.857 97.036 182.996 97.2267 183.091 97.452C183.186 97.6687 183.234 97.9373 183.234 98.258C183.234 98.882 183 99.3543 182.532 99.675C182.073 99.9957 181.414 100.156 180.556 100.156C179.958 100.156 179.49 100.104 179.152 100C178.814 99.9047 178.584 99.831 178.463 99.779L178.684 98.739C178.823 98.791 179.044 98.869 179.347 98.973C179.65 99.077 180.053 99.129 180.556 99.129Z" fill="#082487"/>
<g clip-path="url(#clip0)">
<path fill-rule="evenodd" clip-rule="evenodd" d="M134.568 46.0227C134.283 43.5844 133.742 42.2629 132.864 41.8636C132.531 41.7118 131.991 41.6238 131.316 42.0662L131.184 42.1526L131.115 42.2928C130.059 44.439 129.148 45.3644 128.972 45.5322C128.771 45.7274 128.466 45.9409 128.361 45.9769C128.208 46.0054 127.728 45.9436 127.554 45.8581C127.487 45.8229 127.308 45.6753 127.248 45.6033C126.958 45.2668 126.486 44.3269 126.285 43.9262C126.009 43.3765 125.639 42.5104 125.317 41.666C125.057 40.9809 124.825 40.4281 124.532 39.7282C124.307 39.1892 124.051 38.5784 123.711 37.7383C122.709 35.2864 122.006 33.9362 121.281 33.077C120.587 32.2585 119.905 31.7027 119.133 31.3275C117.937 30.7475 116.724 30.6858 115.524 31.1443C114.489 31.5443 113.802 32.246 113.266 32.8797L113.235 32.9204C112.335 34.2018 112.109 34.578 111.616 35.4026L111.604 35.4232C110.977 36.4645 110.755 36.8919 110.313 37.7434C110.223 37.9176 110.122 38.1106 110.007 38.3311C109.295 39.693 109.22 39.8547 108.504 41.4024L108.481 41.4522C107.585 43.386 107.046 44.2984 106.093 45.4901C106.04 45.5411 105.99 45.5858 105.939 45.6266C105.896 45.662 105.857 45.6963 105.818 45.7303C105.7 45.8348 105.614 45.9107 105.194 46.0462C105.073 46.0578 104.7 45.9718 104.398 45.8424C104.331 45.8059 104.171 45.6702 104.11 45.5966C103.833 45.2747 103.361 44.4027 103.157 43.9404C102.889 43.3464 102.406 42.2667 102.173 41.7117C102.002 41.3008 101.767 40.7041 101.518 40.0723C101.172 39.197 100.815 38.2917 100.567 37.7187C99.8181 36.0043 98.8656 33.9266 98.1428 33.0703C97.4495 32.252 96.7671 31.696 95.9949 31.3207C94.7992 30.7408 93.5858 30.6788 92.3863 31.1376C91.3509 31.5374 90.6636 32.2392 90.1278 32.873L90.0966 32.9135C89.1978 34.1935 88.9727 34.5694 88.4795 35.393L88.4649 35.4175C87.7291 36.6473 86.3785 38.96 86.3629 38.9867L84.9875 41.3805L82.9344 44.5293L83.1604 53.1312L84.0008 52.6697C84.3989 52.451 84.6953 52.1153 84.9567 51.8191C85.044 51.7201 85.1266 51.6266 85.2093 51.5409L85.2308 51.5174C85.9687 50.6621 86.6689 49.377 86.6983 49.3227L86.707 49.3058C86.7304 49.2592 89.0463 44.6251 89.9084 43.1365C90.3991 42.2893 91.5288 40.6313 92.1826 39.961C92.3719 39.7664 92.7711 39.4708 93.0019 39.3816L93.0364 39.3669C93.2574 39.2792 94.1023 39.3906 94.3425 39.5697C94.7666 39.8886 95.459 40.9803 95.7916 41.505L95.8935 41.6652C96.2526 42.2238 96.9101 43.441 97.2358 44.1149C97.5549 44.7767 98.0239 45.9026 98.4379 46.896C98.7295 47.5958 99.0049 48.2569 99.2165 48.7316C99.5111 49.3896 100.124 50.6795 100.461 51.2908C100.895 52.0774 101.567 53.1156 102.307 53.598C102.84 53.9386 103.416 54.1516 104.015 54.2306C104.537 54.303 105.066 54.2707 105.58 54.1363C106.119 54 106.597 53.7776 107.038 53.4579C107.517 53.1143 107.961 52.676 108.439 52.0738C108.803 51.6041 109.154 51.0603 109.513 50.413C110.152 49.2652 110.669 48.0652 111.091 47.0405C111.27 46.673 111.451 46.2967 111.63 45.9244C112.152 44.8389 112.644 43.8137 113.042 43.1446C113.977 41.5908 114.783 40.4336 115.25 39.9734C115.54 39.6928 115.884 39.4445 116.002 39.4064C116.3 39.3479 117.139 39.507 117.511 39.6928C118.116 39.9969 118.8 41.1836 119.024 41.5728C119.291 42.037 119.458 42.3216 119.573 42.5177C119.813 42.9285 119.813 42.9285 120.065 43.4551C120.143 43.6182 120.243 43.8294 120.382 44.117C120.824 45.0255 121.284 46.1435 121.689 47.1298C121.933 47.7256 122.164 48.2882 122.362 48.7316C122.656 49.3896 123.269 50.6795 123.606 51.2908C124.04 52.0774 124.712 53.1156 125.453 53.598C125.985 53.9386 126.561 54.1516 127.16 54.2306C127.341 54.2556 127.523 54.2683 127.705 54.2683C128.048 54.2683 128.389 54.224 128.725 54.1363C129.264 54.0001 129.742 53.7776 130.183 53.458C130.662 53.1144 131.106 52.6762 131.584 52.0738C131.949 51.6034 132.3 51.0598 132.658 50.4131C133.317 49.2304 134.082 47.5585 134.515 46.5055L134.549 46.4221L134.574 46.0751L134.568 46.0227Z" fill="#F78036"/>
<path fill-rule="evenodd" clip-rule="evenodd" d="M87.8425 46.8787C87.5203 45.1479 86.8802 43.998 85.9403 43.4609C85.0009 42.9238 84.1456 43.2167 84.0511 43.2519C83.9357 43.2948 83.8372 43.374 83.77 43.478C83.4992 43.8967 82.7285 45.0546 82.4188 45.3781C82.4158 45.3812 82.4129 45.3844 82.41 45.3876C82.3216 45.4843 82.0501 45.6749 81.8206 45.802C81.6432 45.8988 81.3539 45.8372 81.2444 45.777C81.183 45.7425 80.9952 45.5858 80.9099 45.4928C80.6445 45.2001 80.2671 44.5244 79.9922 43.8495C79.7205 43.1828 79.561 42.8247 79.433 42.5372C79.2894 42.2146 79.1945 42.0016 79.0265 41.5348C79.0251 41.5308 79.0236 41.5269 79.0222 41.523C78.8283 41.0189 78.6343 40.5401 78.4096 39.9857C78.1037 39.2309 77.7569 38.3752 77.3174 37.2222C77.3156 37.2172 77.3136 37.2122 77.3117 37.2074C76.343 34.8623 75.6754 33.4183 74.9232 32.503C74.2407 31.6755 73.5691 31.1137 72.8095 30.7344C71.6327 30.1481 70.4387 30.0857 69.2583 30.5493C68.4158 30.8834 67.6676 31.4572 66.9702 32.3043C66.446 32.9437 66.0575 33.6626 65.6816 34.3577C65.5865 34.5335 65.4912 34.7097 65.3943 34.8838C63.7512 37.8136 63.1882 38.9912 62.4752 40.4821C62.3147 40.818 62.1453 41.172 61.9533 41.5683C61.7727 41.9415 61.6317 42.2417 61.5104 42.5003C61.1238 43.3234 60.9475 43.6992 60.3047 44.6909C60.3002 44.6978 60.2959 44.7048 60.2917 44.7119C60.2315 44.8143 60.036 45.0076 59.8703 45.1304C59.8198 45.1667 59.8001 45.1764 59.7187 45.134C59.2133 44.8736 58.9588 44.5383 58.8936 44.05C58.8351 43.5942 58.7667 43.0642 58.6924 42.5428C58.5522 41.5065 58.4678 40.4354 58.386 39.3995L58.3594 39.0629C58.3218 38.5395 58.2752 37.8882 58.2454 37.2616L58.2441 37.2372C58.1957 36.2833 58.1454 35.2969 58.1243 34.3354C58.0855 32.3995 58.1344 30.4716 58.1814 29.0085C58.1817 29.0023 58.1817 28.9961 58.1817 28.9898C58.1817 28.9748 58.183 28.9599 58.1841 28.9449C58.1862 28.9126 58.188 28.8803 58.1886 28.848C58.2239 28.3408 58.2601 27.8166 58.2818 27.2942C58.3018 26.7398 58.3412 26.1754 58.3791 25.6296C58.3945 25.4083 58.41 25.1873 58.4236 24.9752C58.4337 24.8491 58.4452 24.7214 58.4571 24.5929C58.4704 24.4471 58.4838 24.3003 58.4948 24.1593C58.5198 23.8745 58.5465 23.5916 58.5732 23.3085C58.6003 23.0228 58.6273 22.7368 58.6518 22.4562C58.6721 22.2523 58.6901 22.0485 58.7081 21.8447C58.7339 21.5517 58.7607 21.2488 58.7948 20.9494C58.8568 20.3584 58.9266 19.7629 59.0081 19.1289L59.0397 18.8845C59.1353 18.1417 59.234 17.3735 59.3366 16.6207C59.463 15.7558 59.5937 14.8615 59.7364 13.9891C59.9343 12.752 60.1143 11.6369 60.3145 10.5199C60.5229 9.37937 60.747 8.21813 60.9639 7.0952C61.0387 6.70785 61.1135 6.32051 61.188 5.93166C61.2013 5.86164 61.2169 5.79174 61.2323 5.72172C61.2689 5.55527 61.3069 5.38317 61.3236 5.20565C61.4257 4.29138 61.4024 3.39418 61.2544 2.54059C61.1514 1.93616 60.9829 1.46045 60.7246 1.04369C60.459 0.614587 60.129 0.312253 59.7425 0.14338C59.6383 0.0512155 59.5042 0 59.3649 0H59.2432C58.9823 0 58.7542 0.177986 58.6891 0.432794L58.6698 0.508003C58.5618 0.930416 58.4538 1.35237 58.3465 1.76567C57.6625 4.35078 57.0216 7.02737 56.4414 9.72057C55.8862 12.2918 55.5021 14.2741 55.1968 16.1462L55.1727 16.2908C54.9762 17.4705 54.773 18.6902 54.6001 19.9022C54.4081 21.2294 54.2337 22.5903 54.0816 23.9487C53.968 24.9878 53.8662 26.0556 53.7795 27.1187C53.7109 27.8981 53.653 28.7373 53.5917 29.8414C53.5737 30.1796 53.5609 30.5229 53.5484 30.8548C53.5363 31.1839 53.5235 31.5241 53.5059 31.854C53.4863 32.2115 53.4642 32.6303 53.4268 33.4662C53.4262 33.4748 53.4262 33.4835 53.4262 33.4922V36.0709C53.4262 36.0805 53.4262 36.0904 53.427 36.1L53.459 36.7422C53.475 37.0637 53.475 37.0637 53.4948 37.3938L53.506 37.5795C53.5555 38.4437 53.5916 39.3318 53.6265 40.1906L53.6274 40.2134C53.6533 40.7822 53.6937 41.4044 53.7505 42.1165C53.8338 43.1372 53.9386 44.1194 54.0616 45.0325C54.2185 46.2479 54.45 47.4353 54.7512 48.5669C55.0123 49.5134 55.2976 50.2664 55.6465 50.9316C55.9348 51.4942 56.2634 51.9599 56.648 52.3519C57.8943 53.6412 59.6153 53.9157 61.1419 53.0662C61.588 52.8145 61.9983 52.4865 62.3942 52.0648C62.9846 51.4413 63.4877 50.7032 63.9316 49.8093C64.3204 49.0305 64.783 48.0269 65.2725 46.9642C65.8805 45.645 66.5093 44.2809 66.9695 43.4178C67.3858 42.6366 68.6527 40.2597 69.3741 39.2708C69.4507 39.1676 69.7085 38.9396 69.9877 38.7536C70.1658 38.6471 70.8726 38.7314 71.1152 38.8869C71.5657 39.1775 72.3164 40.1142 72.7922 40.8453C73.2724 41.5921 74.0872 43.4113 74.4665 44.383C74.6541 44.864 74.8554 45.531 75.0686 46.2371C75.353 47.1794 75.6753 48.2475 76.0478 49.1455C76.485 50.1972 76.9043 51.0143 77.3691 51.7197C77.9244 52.5511 78.4914 53.1448 79.1578 53.591C79.682 53.9352 80.2486 54.1505 80.8378 54.2303C81.0165 54.2557 81.1957 54.2683 81.3749 54.2683C81.7117 54.2683 82.048 54.2237 82.3788 54.1351C82.909 53.9972 83.3788 53.7724 83.8128 53.4493C84.2851 53.1019 84.722 52.6589 85.192 52.0503C85.5508 51.5746 85.8967 51.025 86.2478 50.3729C86.8358 49.2976 87.1309 48.7579 87.7725 47.3339C87.7942 47.2856 87.8089 47.2357 87.8167 47.1857C87.8517 47.0909 87.8624 46.9854 87.8425 46.8787Z" fill="#082487"/>
<mask id="mask0" mask-type="alpha" maskUnits="userSpaceOnUse" x="19" y="59" width="18" height="23">
<path d="M19 59.2948H36.1498V81.312H19V59.2948Z" fill="white"/>
</mask>
<g mask="url(#mask0)">
<path fill-rule="evenodd" clip-rule="evenodd" d="M31.4888 59.2948H36.1498V81.312H31.4888V71.9715H23.661V81.312H19V59.2948H23.661V67.7142H31.4888V59.2948Z" fill="#082487"/>
</g>
<path fill-rule="evenodd" clip-rule="evenodd" d="M49.9564 72.7377C49.9564 71.304 49.6728 70.177 49.1063 69.356C48.5391 68.5354 47.7305 68.1249 46.6793 68.1249C45.6282 68.1249 44.8138 68.5354 44.2371 69.356C43.6597 70.177 43.3712 71.304 43.3712 72.7377C43.3712 74.1714 43.6597 75.3091 44.2371 76.1507C44.8138 76.9922 45.6282 77.4129 46.6793 77.4129C47.7305 77.4129 48.5391 76.9922 49.1063 76.1507C49.6728 75.3091 49.9564 74.1714 49.9564 72.7377ZM54.6557 72.7377C54.6557 74.0263 54.4702 75.2053 54.0992 76.2753C53.7282 77.3456 53.192 78.2598 52.4916 79.0181C51.7907 79.7768 50.9505 80.3636 49.9719 80.7791C48.9927 81.1946 47.8953 81.4024 46.6793 81.4024C45.4837 81.4024 44.3963 81.1946 43.4177 80.7791C42.4385 80.3636 41.5985 79.7768 40.8981 79.0181C40.1971 78.2598 39.6507 77.3456 39.2594 76.2753C38.8677 75.2053 38.6721 74.0263 38.6721 72.7377C38.6721 71.4496 38.873 70.2754 39.275 69.2157C39.6768 68.1559 40.2334 67.2521 40.9444 66.504C41.6555 65.756 42.5003 65.1745 43.4796 64.7586C44.4582 64.3432 45.5249 64.1353 46.6793 64.1353C47.8541 64.1353 48.9309 64.3432 49.9101 64.7586C50.8887 65.1745 51.7288 65.756 52.4297 66.504C53.1302 67.2521 53.6765 68.1559 54.0682 69.2157C54.4596 70.2754 54.6557 71.4496 54.6557 72.7377Z" fill="#082487"/>
<path fill-rule="evenodd" clip-rule="evenodd" d="M65.9124 71.8541C65.9124 70.4236 65.7245 69.4102 65.3492 68.8143C64.9735 68.2182 64.3295 67.9201 63.4161 67.9201C63.1318 67.9201 62.8378 67.9351 62.5335 67.965C62.229 67.9947 61.9346 68.0297 61.6506 68.0692V80.1691H57.1148V65.0294C57.5 64.9302 57.952 64.8258 58.4694 64.7164C58.9869 64.6075 59.5349 64.5079 60.1133 64.4184C60.6916 64.329 61.2852 64.2595 61.8941 64.2098C62.5029 64.1605 63.1012 64.1353 63.6902 64.1353C64.8469 64.1353 65.7855 64.2796 66.506 64.5674C67.2261 64.8556 67.8197 65.1983 68.2869 65.5957C68.9362 65.1387 69.6819 64.7812 70.5244 64.5226C71.3663 64.2646 72.1426 64.1353 72.8532 64.1353C74.1317 64.1353 75.1821 64.3095 76.004 64.6568C76.8258 65.0047 77.4802 65.4963 77.9674 66.132C78.4545 66.7682 78.7894 67.5229 78.972 68.397C79.1546 69.2716 79.2459 70.2448 79.2459 71.3176V80.1691H74.7101V71.8541C74.7101 70.4236 74.5223 69.4102 74.1468 68.8143C73.7712 68.2182 73.1273 67.9201 72.2139 67.9201C71.9703 67.9201 71.6303 67.9798 71.1941 68.099C70.7575 68.2182 70.3974 68.3672 70.1134 68.5461C70.2551 69.0034 70.3465 69.4848 70.3875 69.9916C70.4279 70.4982 70.4482 71.0396 70.4482 71.6157V80.1691H65.9124V71.8541Z" fill="#082487"/>
<path fill-rule="evenodd" clip-rule="evenodd" d="M92.1583 71.1169C92.1382 70.7225 92.0732 70.3377 91.9642 69.9637C91.8545 69.5897 91.685 69.2575 91.4564 68.9664C91.2272 68.6756 90.9384 68.4365 90.5902 68.2495C90.2416 68.0625 89.8086 67.9689 89.2911 67.9689C88.7932 67.9689 88.3652 68.0577 88.0069 68.2339C87.6483 68.4108 87.3497 68.6444 87.1108 68.9352C86.8719 69.2265 86.6876 69.5639 86.5583 69.9481C86.4285 70.3328 86.3343 70.7225 86.2746 71.1169H92.1583ZM81.7049 72.8936C81.7049 71.4393 81.9187 70.1664 82.347 69.0755C82.7751 67.9846 83.3373 67.0757 84.0345 66.3483C84.7313 65.6211 85.5325 65.0704 86.4389 64.6963C87.3446 64.3224 88.2755 64.1353 89.2313 64.1353C91.4611 64.1353 93.2232 64.8473 94.5177 66.2704C95.8118 67.6938 96.459 69.7874 96.459 72.5508C96.459 72.821 96.4488 73.1171 96.4293 73.4391C96.4092 73.7614 96.389 74.0468 96.3696 74.2961H86.2746C86.374 75.2521 86.8019 76.0104 87.5587 76.5714C88.3153 77.1325 89.3307 77.4131 90.6052 77.4131C91.4214 77.4131 92.2226 77.3351 93.0095 77.1793C93.7958 77.0233 94.4379 76.8315 94.9359 76.6027L95.5332 80.3739C95.2942 80.4986 94.9756 80.6234 94.5775 80.748C94.1789 80.8727 93.736 80.9817 93.2484 81.0753C92.7603 81.1688 92.2376 81.2466 91.6803 81.3091C91.1227 81.3714 90.565 81.4024 90.0079 81.4024C88.5939 81.4024 87.3646 81.1843 86.3193 80.748C85.2739 80.3116 84.4079 79.7145 83.721 78.9558C83.0341 78.1975 82.5263 77.2989 82.1977 76.2598C81.8692 75.221 81.7049 74.099 81.7049 72.8936Z" fill="#082487"/>
<path fill-rule="evenodd" clip-rule="evenodd" d="M107.716 71.8541C107.716 70.4236 107.528 69.4102 107.152 68.8143C106.777 68.2182 106.133 67.9201 105.219 67.9201C104.935 67.9201 104.641 67.9351 104.337 67.965C104.032 67.9947 103.738 68.0297 103.454 68.0692V80.1691H98.918V65.0294C99.3033 64.9302 99.7552 64.8258 100.273 64.7164C100.79 64.6075 101.338 64.5079 101.917 64.4184C102.495 64.329 103.088 64.2595 103.697 64.2098C104.306 64.1605 104.905 64.1353 105.493 64.1353C106.65 64.1353 107.589 64.2796 108.309 64.5674C109.029 64.8556 109.623 65.1983 110.09 65.5957C110.739 65.1387 111.485 64.7812 112.328 64.5226C113.17 64.2646 113.946 64.1353 114.656 64.1353C115.935 64.1353 116.985 64.3095 117.807 64.6568C118.629 65.0047 119.283 65.4963 119.771 66.132C120.258 66.7682 120.593 67.5229 120.775 68.397C120.958 69.2716 121.049 70.2448 121.049 71.3176V80.1691H116.513V71.8541C116.513 70.4236 116.326 69.4102 115.95 68.8143C115.574 68.2182 114.931 67.9201 114.017 67.9201C113.774 67.9201 113.434 67.9798 112.997 68.099C112.561 68.2182 112.201 68.3672 111.917 68.5461C112.058 69.0034 112.15 69.4848 112.191 69.9916C112.231 70.4982 112.252 71.0396 112.252 71.6157V80.1691H107.716V71.8541Z" fill="#082487"/>
<path fill-rule="evenodd" clip-rule="evenodd" d="M138.262 80.5084C137.507 80.7274 136.535 80.9308 135.343 81.1194C134.151 81.3081 132.9 81.4025 131.589 81.4025C130.259 81.4025 129.151 81.2238 128.268 80.8661C127.384 80.5084 126.684 80.0069 126.168 79.3611C125.651 78.7155 125.284 77.9454 125.065 77.0514C124.847 76.1573 124.738 75.1738 124.738 74.1008V65.3687H129.176V73.5644C129.176 74.995 129.365 76.0283 129.742 76.6639C130.12 77.3 130.825 77.6176 131.857 77.6176C132.175 77.6176 132.513 77.6027 132.87 77.5729C133.228 77.543 133.545 77.5086 133.824 77.4687V65.3687H138.262V80.5084Z" fill="#081082"/>
<mask id="mask1" mask-type="alpha" maskUnits="userSpaceOnUse" x="139" y="64" width="13" height="18">
<path d="M139.542 64.2448H151.721V81.4024H139.542V64.2448Z" fill="white"/>
</mask>
<g mask="url(#mask1)">
<path fill-rule="evenodd" clip-rule="evenodd" d="M145.015 77.655C145.837 77.655 146.418 77.5727 146.759 77.4073C147.1 77.2422 147.271 76.9224 147.271 76.4471C147.271 76.0754 147.05 75.7503 146.609 75.4715C146.168 75.1928 145.496 74.8783 144.594 74.5269C143.892 74.2589 143.256 73.9801 142.685 73.6907C142.113 73.4019 141.627 73.0559 141.226 72.6533C140.825 72.2507 140.514 71.7706 140.294 71.2131C140.073 70.6556 139.963 69.9849 139.963 69.2001C139.963 67.6723 140.514 66.4645 141.617 65.5765C142.719 64.6889 144.233 64.2448 146.158 64.2448C147.12 64.2448 148.042 64.3329 148.925 64.508C149.806 64.6836 150.508 64.8749 151.03 65.0809L150.248 68.6736C149.726 68.4876 149.16 68.3228 148.549 68.178C147.937 68.0339 147.25 67.9612 146.489 67.9612C145.085 67.9612 144.384 68.3638 144.384 69.169C144.384 69.3548 144.414 69.5205 144.474 69.6646C144.534 69.8094 144.654 69.9487 144.835 70.0828C145.015 70.2172 145.26 70.3624 145.571 70.5183C145.882 70.6745 146.278 70.8463 146.759 71.0332C147.741 71.4081 148.553 71.7778 149.195 72.1417C149.837 72.5061 150.343 72.8995 150.714 73.3215C151.084 73.744 151.345 74.213 151.496 74.7278C151.646 75.2427 151.721 75.8404 151.721 76.5198C151.721 78.1269 151.135 79.3425 149.962 80.1665C148.789 80.9902 147.13 81.4025 144.985 81.4025C143.582 81.4025 142.414 81.2786 141.482 81.0308C140.549 80.783 139.903 80.577 139.542 80.4113L140.294 76.664C141.055 76.9737 141.837 77.2166 142.639 77.3918C143.441 77.5674 144.233 77.655 145.015 77.655Z" fill="#082487"/>
</g>
<path fill-rule="evenodd" clip-rule="evenodd" d="M164.699 71.1169C164.679 70.7225 164.614 70.3377 164.505 69.9637C164.395 69.5897 164.226 69.2575 163.997 68.9664C163.768 68.6756 163.479 68.4365 163.131 68.2495C162.783 68.0625 162.35 67.9689 161.832 67.9689C161.334 67.9689 160.906 68.0577 160.548 68.2339C160.189 68.4108 159.891 68.6444 159.652 68.9352C159.413 69.2265 159.229 69.5639 159.099 69.9481C158.97 70.3328 158.875 70.7225 158.815 71.1169H164.699ZM154.246 72.8936C154.246 71.4393 154.46 70.1664 154.888 69.0755C155.316 67.9846 155.878 67.0757 156.575 66.3483C157.272 65.6211 158.073 65.0704 158.98 64.6963C159.886 64.3224 160.817 64.1353 161.772 64.1353C164.002 64.1353 165.764 64.8473 167.059 66.2704C168.353 67.6938 169 69.7874 169 72.5508C169 72.821 168.99 73.1171 168.97 73.4391C168.95 73.7614 168.93 74.0468 168.91 74.2961H158.815C158.915 75.2521 159.343 76.0104 160.1 76.5714C160.856 77.1325 161.872 77.4131 163.146 77.4131C163.962 77.4131 164.764 77.3351 165.551 77.1793C166.337 77.0233 166.979 76.8315 167.477 76.6027L168.074 80.3739C167.835 80.4986 167.517 80.6234 167.118 80.748C166.72 80.8727 166.277 80.9817 165.789 81.0753C165.301 81.1688 164.779 81.2466 164.221 81.3091C163.664 81.3714 163.106 81.4024 162.549 81.4024C161.135 81.4024 159.906 81.1843 158.86 80.748C157.815 80.3116 156.949 79.7145 156.262 78.9558C155.575 78.1975 155.067 77.2989 154.739 76.2598C154.41 75.221 154.246 74.099 154.246 72.8936Z" fill="#082487"/>
</g>
<defs>
<clipPath id="clip0">
<rect x="19" width="150" height="81.4024" fill="white"/>
</clipPath>
</defs>
</svg>
